<?xml version="1.0" encoding="UTF-8"?><!DOCTYPE svg><svg xmlns="http://www.w3.org/2000/svg" viewBox="0 0 900 700"><path d="M765.5 63.6L596 141.3c-14.1 4.1-27.1 5.9-43 5.9-17.3 0-26.8-1.4-31.9-4.6-6.3-4-25-13.1-35.1-17-43.3-17.1-97.4-20.2-135.5-7.8-4.9 1.6-5.4 2-3 2.1 10.1.4 27.7 2.5 38 4.6 71 14.4 145.4 70.6 198.7 150 5.5 8.2 10.4 15.1 10.8 15.3 1.3.5 4.2-17 4.8-28.8l.5-11.5L743.7 130 895 3.1c-.3 0-58.5 27.2-129.5 60.5zm-382-57.9C320 9.9 260 28.8 214.8 58.9c-17.8 11.9-28 20.2-42.3 34.6-47.4 47.4-76.7 110.2-86.1 185-2.5 19.3-2.5 59.3-.1 75.5 7.8 52.2 35.8 110 80.2 165.5 6.2 7.7 12.2 14.8 13.3 15.9 2.1 1.8 2.2 1.8 3.1-.6 4.7-12.5 18.7-39.6 28.4-55.3 38.7-62.6 95.7-109.8 165.5-137 3.9-1.5 7.1-3 6.9-3.1-.2-.2-8-1.1-17.3-2-19.8-1.9-45.1-1.5-58.8 1-4.9.9-9.6 1.4-10.3 1.2-1.8-.7-1.7-33.3.1-43.6 4.4-24.4 15.8-37.8 38.1-44.9 51.7-16.6 114.6 11.4 141.3 62.7 2.4 4.5 4.6 8.2 4.9 8.2 1.1 0-.7-31.6-2.2-39.7l-1.5-8.5c0-1.4 8.7-5.8 11.4-5.8 3.9 0 9.6 5.8 9.6 9.8 0 1.6-1.3 5.8-2.9 9.4l-3 6.4 4.9 10c8.2 16.8 13.1 34.4 16.2 57.4 2.7 21 1 66.5-3.7 95.4-.7 4.4-1.1 8.2-1 8.4.7.8 9.9-13.3 14-21.3 12.5-24.5 18.1-58.3 15.7-95-.9-14.5-.9-17.7.1-16.4 4.7 5.9 36.7 40.6 36.7 39.7 0-3.1-3.4-20.3-6-30.8-15-59.4-50.8-113.6-96.8-146.7-10.8-7.7-27.2-16.3-37.7-19.7-7.7-2.5-21.3-5.1-22.2-4.3-.2.2 3.9 3.9 9.1 8.1 11.1 9 25.6 23.9 32 33 2.6 3.5 6.2 9.7 8 13.8 3.3 7 6.5 19.3 5.3 20.4-.3.3-5-2.8-10.5-6.9-25.9-19.3-57.9-35.5-85-43.1-37.7-10.7-75.2-8.2-105.2 6.8-10 5.1-15.3 8.8-23.9 17-12.3 11.9-21 26.2-26.5 43.5-4.4 14-5.9 24.9-5.9 44.1 0 18.5.7 26 5.4 56.7 1.6 10.5 2.6 19.8 2.3 20.6-.7 1.9-5.9 6-16.9 13.3-10.8 7.2-28 17.4-29.4 17.4-1.5 0-10.5-15.5-17.6-30.3-21.4-44.3-26.9-91.9-16.5-140.2 3.9-17.7 10.9-37.1 16.4-45.5 16.9-25.1 45.3-42 83.4-49.4 6.8-1.4 12.6-2.7 13-3 .9-1-28.7-.7-38.3.4-4.9.6-14.1 2-20.3 3.1-6.2 1.2-11.5 2-11.7 1.7-.6-.5 10.6-14.9 19.5-25.1l7.5-8.6 17.5-7C282.3 88.4 335.6 78 394.9 78c33.6 0 53.9 2 84.2 8 24.2 4.8 53.6 14.1 74.2 23.4 3.1 1.4 5.7 2.4 5.7 2.2 0-1.2-21.1-13.7-33.1-19.6-65.7-32.1-159.8-37.5-261.1-15.2-7.1 1.6-12.8 2.5-12.8 2.2 0-.4 4.8-4.1 10.8-8.2C314.4 34.7 374.7 12.4 435.5 7c7.2-.7 13.2-1.4 13.4-1.6.5-.5-57.9-.2-65.4.3zM39.8 226.3C16.3 268.5 4.1 309.4 1 356.3c-1.2 18.2-.3 39.6 2.6 60.1 11.9 85 59 177.2 138.3 270.5l10.6 12.5.7-3.5c.4-1.8 3.7-33.1 7.4-69.4l6.7-66L96 440.7v5.9c0 12.9 4.2 40.4 8.9 59.4 1.6 6.3 2.8 11.6 2.6 11.8-.6.6-13.3-16.3-19-25.3-7.6-12-21.3-40.1-26.9-55.1-12.4-33.6-20.8-72.9-23.7-111.4-2.3-30 .2-75.2 5.5-100.5.8-3.8 1.3-7.1 1.2-7.2-.1-.2-2.3 3.4-4.8 8z"/></svg>